<svg width="38" height="35" viewBox="0 0 38 35" fill="none" xmlns="http://www.w3.org/2000/svg">
<rect width="37.0703" height="35" transform="translate(0.0594635)" fill="white"/>
<path d="M3.39609 24.092H6.74741C6.865 24.9247 7.07078 25.8681 7.33536 26.7008L3.51368 30.3926C2.71994 31.1697 2.74934 32.3907 3.54308 33.1126C3.95464 33.4735 4.4544 33.6677 4.98356 33.6677C5.51271 33.6677 6.04187 33.4735 6.45343 33.0846L9.305 30.3371C11.4804 33.1681 14.8611 35 18.5946 35H18.6534C22.3869 35 25.7382 33.1959 27.9137 30.3371L30.7649 33.0846C31.1765 33.4732 31.7057 33.6677 32.2348 33.6677C32.7346 33.6677 33.2637 33.4735 33.6462 33.1126C34.4693 32.3632 34.4693 31.1417 33.6756 30.3926L29.8539 26.7008C30.1479 25.8681 30.3537 24.9247 30.4419 24.092H33.7932C34.9103 24.092 35.851 23.2038 35.851 22.1491C35.851 21.0944 34.9394 20.2062 33.7932 20.2062H30.324C30.177 19.3735 29.9418 18.4853 29.6187 17.7082L33.6462 13.7946C34.4396 13.0175 34.4105 11.7962 33.6165 11.0746C32.7934 10.3252 31.4999 10.3529 30.7355 11.1023L27.7076 14.0999L27.6194 14.1832C26.4435 15.3212 25.3261 16.709 23.7977 17.4306C22.8273 17.875 21.9163 18.2353 20.7404 18.4301V25.9794C20.7404 27.0344 19.7996 27.9223 18.6825 27.9223C17.5066 27.9223 16.6247 27.0619 16.6247 25.9794V18.4298C15.4488 18.2353 14.4787 17.8747 13.5086 17.4304C11.9799 16.7087 10.804 15.3209 9.62808 14.1829L9.53989 14.0997L6.45343 11.1023C5.6597 10.3252 4.36621 10.3252 3.57247 11.0746C2.74934 11.824 2.74934 13.0452 3.54308 13.7946L7.54114 17.7082C7.21777 18.5128 6.98259 19.3735 6.8356 20.2062H3.39609C2.27898 20.2062 1.33826 21.0944 1.33826 22.1491C1.33826 23.2038 2.24958 24.092 3.39609 24.092Z" fill="#4B8CBB"/>
<path d="M25.6204 3.1364C26.238 2.38699 26.2083 1.30452 25.4734 0.610627C25.0912 0.222046 24.562 0.0277558 24.0332 0C23.4452 0 22.9746 0.222046 22.5633 0.582871C20.4173 2.38699 16.8896 2.38699 14.7729 0.582871C14.3614 0.222046 13.8028 0 13.2443 0C12.7151 0 12.186 0.222046 11.8038 0.582871C11.0983 1.27676 11.0395 2.35924 11.6568 3.10864C11.7156 3.19191 11.7744 3.24742 11.8626 3.30293C12.3036 3.69151 12.7445 4.02458 13.2443 4.3299C12.3329 5.41237 11.8038 6.80016 11.8038 8.29897C11.8038 9.49247 12.1566 10.5749 12.7445 11.5464C13.9204 13.4615 16.184 14.7383 18.6828 14.7383H18.7416C21.2404 14.7383 23.4452 13.4615 24.6211 11.5464C25.2091 10.6027 25.5619 9.49247 25.5619 8.29897C25.5619 6.80016 25.0324 5.44013 24.1214 4.3299C24.5917 4.02458 25.0621 3.69151 25.5031 3.30293C25.5031 3.27518 25.5619 3.19191 25.6204 3.1364Z" fill="#4B8CBB"/>
</svg>
