<svg width="32" height="32" viewBox="0 0 32 32" fill="none" xmlns="http://www.w3.org/2000/svg">
<path d="M0.905736 29.8675H31.0943V10.7976H32V4.75991H27.6581V2.13257H24.7351V4.76005H20.8603V2.13257H17.9373V4.76005H14.0626V2.13257H11.1395V4.76005H7.26479V2.13257H4.34174V4.76005H0V10.7976H0.905736V29.8675ZM4.31523 13.0374H27.6848V26.4579H4.31523V13.0374ZM7.0028 14.8228H10.7909V18.6112H7.0028V14.8228ZM14.1059 14.8228H17.8941V18.6112H14.1059V14.8228ZM21.2091 14.8228H24.9975V18.6112H21.2091V14.8228ZM7.0028 20.5053H10.7909V24.2937H7.0028V20.5053ZM14.1059 20.5053H17.8941V24.2937H14.1059V20.5053ZM21.2091 20.5053H24.9975V24.2937H21.2091V20.5053Z" fill="black"/>
</svg>
