<svg width="26" height="32" viewBox="0 0 26 32" fill="none" xmlns="http://www.w3.org/2000/svg">
<path d="M12.9991 0C6.06476 0 0.42334 5.64142 0.42334 12.5757C0.42334 13.4387 0.510829 14.3002 0.683401 15.1382C0.686837 15.1816 0.693459 15.2253 0.703235 15.2691C2.14147 21.7378 5.88828 27.4728 11.2439 31.411C11.7554 31.7963 12.3667 32 13.0116 32C13.5226 32 14.0273 31.8662 14.4709 31.613C14.501 31.5959 14.5302 31.577 14.5582 31.5566L14.9466 31.2721C20.1594 27.3635 23.8234 21.7324 25.2633 15.4159C25.2729 15.374 25.2795 15.3316 25.2829 15.289C25.478 14.4089 25.5768 13.4966 25.5768 12.5757C25.5768 5.64142 19.9344 0 12.9991 0ZM23.4202 14.9912C23.4104 15.0338 23.4035 15.0767 23.3998 15.1199C22.0398 20.9527 18.6405 26.1498 13.8234 29.7615L13.4981 29.9998C13.1415 30.1836 12.6999 30.1512 12.368 29.901C7.40252 26.2498 3.92533 20.9534 2.56674 14.977C2.5633 14.9392 2.55743 14.9015 2.54934 14.8635C2.38757 14.1174 2.30571 13.3476 2.30571 12.5758C2.30571 6.67945 7.10275 1.8824 12.9991 1.8824C18.8966 1.8824 23.6944 6.67945 23.6944 12.5758C23.6944 13.3983 23.6023 14.211 23.4202 14.9912Z" fill="black"/>
<path d="M12.9995 7.19287C10.0319 7.19287 7.61768 9.60757 7.61768 12.5755C7.61768 15.5426 10.0319 17.9566 12.9995 17.9566C15.9679 17.9566 18.3829 15.5427 18.3829 12.5755C18.3829 9.60761 15.9679 7.19287 12.9995 7.19287ZM12.9995 16.0742C11.0699 16.0742 9.50001 14.5046 9.50001 12.5755C9.50001 10.6453 11.0699 9.07524 12.9995 9.07524C14.9299 9.07524 16.5005 10.6454 16.5005 12.5755C16.5005 14.5047 14.9299 16.0742 12.9995 16.0742Z" fill="black"/>
</svg>
