<?xml version="1.0" encoding="utf-8"?>
<!-- Generator: Adobe Illustrator 27.8.1, SVG Export Plug-In . SVG Version: 6.00 Build 0)  -->
<svg version="1.1" id="Слой_1" xmlns="http://www.w3.org/2000/svg" xmlns:xlink="http://www.w3.org/1999/xlink" x="0px" y="0px"
	 viewBox="0 0 500 500" style="enable-background:new 0 0 500 500;" xml:space="preserve">
<style type="text/css">
	.st0{fill:#4B8CBB;stroke:#000000;stroke-width:12;stroke-miterlimit:10;}
	.st1{fill:#FFFFFF;}
	.st2{fill:#FFFFFF;stroke:#1D1D1B;stroke-width:5;stroke-miterlimit:10;}
</style>
<polygon class="st0" points="331.11,9.66 118.37,40.28 9.68,225.7 86.87,426.29 291.83,491 470.21,371.1 487.69,156.89 "/>
<g>
	<g>
		<path d="M240.7,183.87c-6.13-10.59-13.79-18.94-22.71-24.8c-9.05-5.99-19.08-9.19-30.09-9.75l-1.95-0.14l-1.11,1.67
			c-2.51,3.9-4.6,7.94-5.85,12.12c-1.25,4.32-1.95,8.64-1.95,13.09c0,8.36,3.2,15.6,9.47,21.59c6.27,5.99,13.79,9.05,22.29,9.05
			c6.69,0,13.09-1.81,18.94-5.71c5.99-3.48,10.45-8.22,13.09-13.93l0.84-1.67L240.7,183.87z M224.27,195.43
			c-4.88,2.93-10.03,4.46-15.46,4.46c-6.83,0-12.54-2.37-17.55-7.1c-4.88-4.74-7.24-10.17-7.24-16.58c0-3.76,0.56-7.38,1.67-11
			c0.98-3.06,2.23-5.85,3.9-8.64c8.92,0.7,17.13,3.62,24.66,8.64c7.52,5.01,14.07,12.12,19.5,20.9
			C231.65,189.72,228.58,192.92,224.27,195.43z M240.7,183.87c-6.13-10.59-13.79-18.94-22.71-24.8c-9.05-5.99-19.08-9.19-30.09-9.75
			l-1.95-0.14l-1.11,1.67c-2.51,3.9-4.6,7.94-5.85,12.12c-1.25,4.32-1.95,8.64-1.95,13.09c0,8.36,3.2,15.6,9.47,21.59
			c6.27,5.99,13.79,9.05,22.29,9.05c6.69,0,13.09-1.81,18.94-5.71c5.99-3.48,10.45-8.22,13.09-13.93l0.84-1.67L240.7,183.87z
			 M224.27,195.43c-4.88,2.93-10.03,4.46-15.46,4.46c-6.83,0-12.54-2.37-17.55-7.1c-4.88-4.74-7.24-10.17-7.24-16.58
			c0-3.76,0.56-7.38,1.67-11c0.98-3.06,2.23-5.85,3.9-8.64c8.92,0.7,17.13,3.62,24.66,8.64c7.52,5.01,14.07,12.12,19.5,20.9
			C231.65,189.72,228.58,192.92,224.27,195.43z M272.88,170.08c-7.66-14.77-18.11-26.75-31.06-35.52
			c-7.38-4.88-15.46-8.64-24.1-11.14s-18.11-3.76-28-3.76c-15.74,0-30.92,2.93-45.27,8.78c-14.35,5.85-27.16,14.21-37.89,24.93
			c-8.78,8.64-15.74,18.67-20.34,29.53c-4.6,10.87-6.97,22.57-6.97,34.69c0,15.74,3.76,30.65,11.14,44.3
			c7.38,13.65,17.97,25.21,31.48,34.27c7.66,5.15,16.02,9.05,25.07,11.7c8.92,2.51,18.67,3.9,28.84,3.9
			c18.94,0,37.19-4.32,54.19-12.68c16.99-8.5,30.65-19.92,40.4-34.27c4.6-6.83,8.22-14.35,10.45-22.29
			c2.37-7.94,3.48-16.58,3.48-25.63C284.3,200.58,280.4,184.84,272.88,170.08z M274.27,240.56c-2.09,7.24-5.29,13.93-9.61,20.2
			c-9.05,13.23-21.87,23.96-37.75,31.9c-16.02,7.94-33.29,11.98-51.12,11.98c-9.47,0-18.53-1.25-26.88-3.62
			c-8.36-2.51-16.16-6.13-23.12-10.87c-12.54-8.5-22.43-19.08-29.25-31.76c-6.83-12.54-10.31-26.33-10.31-40.95
			c0-11.14,2.09-21.87,6.41-31.9s10.59-19.22,18.81-27.3c10.17-10.03,22.15-17.97,35.66-23.4c13.51-5.43,28-8.22,42.77-8.22
			c9.19,0,17.97,1.11,26.19,3.48c8.08,2.37,15.46,5.85,22.15,10.31c11.98,8.08,21.59,19.08,28.7,32.87
			c6.97,13.65,10.59,28.42,10.59,43.6C277.48,225.24,276.36,233.32,274.27,240.56z M218,159.07c-9.05-5.99-19.08-9.19-30.09-9.75
			l-1.95-0.14l-1.11,1.67c-2.51,3.9-4.6,7.94-5.85,12.12c-1.25,4.32-1.95,8.64-1.95,13.09c0,8.36,3.2,15.6,9.47,21.59
			c6.27,5.99,13.79,9.05,22.29,9.05c6.69,0,13.09-1.81,18.94-5.71c5.99-3.48,10.45-8.22,13.09-13.93l0.84-1.67l-0.98-1.53
			C234.57,173.28,226.91,164.92,218,159.07z M224.27,195.43c-4.88,2.93-10.03,4.46-15.46,4.46c-6.83,0-12.54-2.37-17.55-7.1
			c-4.88-4.74-7.24-10.17-7.24-16.58c0-3.76,0.56-7.38,1.67-11c0.98-3.06,2.23-5.85,3.9-8.64c8.92,0.7,17.13,3.62,24.66,8.64
			c7.52,5.01,14.07,12.12,19.5,20.9C231.65,189.72,228.58,192.92,224.27,195.43z"/>
		<path class="st1" d="M266.89,173.28c-7.1-13.79-16.72-24.8-28.7-32.87c-6.69-4.46-14.07-7.94-22.15-10.31
			c-8.22-2.37-16.99-3.48-26.19-3.48c-14.77,0-29.25,2.79-42.77,8.22c-13.51,5.43-25.49,13.37-35.66,23.4
			c-8.22,8.08-14.49,17.27-18.81,27.3c-4.32,10.03-6.41,20.76-6.41,31.9c0,14.63,3.48,28.42,10.31,40.95
			c6.83,12.68,16.72,23.26,29.25,31.76c6.97,4.74,14.77,8.36,23.12,10.87c8.36,2.37,17.41,3.62,26.88,3.62
			c17.83,0,35.1-4.04,51.12-11.98c15.88-7.94,28.7-18.67,37.75-31.9c4.32-6.27,7.52-12.95,9.61-20.2s3.2-15.32,3.2-23.68
			C277.48,201.7,273.86,186.93,266.89,173.28z M240.84,187.07c-2.65,5.71-7.1,10.45-13.09,13.93c-5.85,3.9-12.26,5.71-18.94,5.71
			c-8.5,0-16.02-3.06-22.29-9.05c-6.27-5.99-9.47-13.23-9.47-21.59c0-4.46,0.7-8.78,1.95-13.09c1.25-4.18,3.34-8.22,5.85-12.12
			l1.11-1.67l1.95,0.14c11,0.56,21.03,3.76,30.09,9.75c8.92,5.85,16.58,14.21,22.71,24.8l0.98,1.53L240.84,187.07z"/>
	</g>
	<path class="st2" d="M432.94,239.03c0,6.69-0.84,12.95-2.51,18.67c-1.67,5.85-4.32,11.28-7.66,16.3
		c-6.83,10.03-15.6,17.97-26.33,23.82c-10.87,5.85-22.29,8.64-34.41,8.64c-20.62,0-37.47-6.13-50.84-18.53
		c-13.37-12.4-20.06-28-20.06-46.94c0-20.06,6.83-36.5,20.34-49.31c13.65-12.82,31.06-19.22,52.52-19.22
		c20.2,0,36.78,6.27,49.59,18.67C426.53,203.51,432.94,219.53,432.94,239.03z M319.13,219.95c2.51,3.06,5.43,5.43,8.64,6.83
		s6.97,2.23,11.28,2.23c7.38,0,13.65-2.23,18.81-6.83s7.66-10.17,7.66-16.72c0-2.65-0.42-5.01-1.25-7.1
		c-0.84-2.09-2.09-4.04-3.76-5.57c-9.89,2.79-18.39,6.41-25.21,11C328.46,208.38,323.03,213.54,319.13,219.95z"/>
	<path d="M181.5,369.55c30.23-8.08,64.36-14.35,101.97-16.99c35.52-2.37,68.26-0.98,97.37,2.51c0,0-146.96-27.72-198.09-3.9
		c-0.42,0.14-0.84,0.42-1.25,0.84V369.55z"/>
	<path d="M182.34,382.65c-1.67-1.25-11.28-8.36-11.84-20.2c-0.7-14.77,13.09-23.54,14.21-24.24c-1.39,6.41-2.51,13.79-2.93,21.87
		C181.36,368.3,181.64,375.96,182.34,382.65z"/>
</g>
</svg>
