<svg width="25" height="25" viewBox="0 0 25 25" fill="none" xmlns="http://www.w3.org/2000/svg">
<g clip-path="url(#clip0_104_17)">
<path d="M9.37502 3.125C8.55402 3.12436 7.74093 3.28547 6.98221 3.59915C6.22349 3.91282 5.53401 4.37291 4.95315 4.95313C4.80604 5.10024 4.72339 5.29977 4.72339 5.50781C4.72339 5.71586 4.80604 5.91539 4.95315 6.0625C5.10026 6.20961 5.29979 6.29226 5.50784 6.29226C5.71588 6.29226 5.91541 6.20961 6.06252 6.0625C6.94143 5.18469 8.13283 4.69163 9.37502 4.69163C10.6172 4.69163 11.8086 5.18469 12.6875 6.0625C12.7601 6.13573 12.8466 6.19385 12.9418 6.23351C13.037 6.27317 13.1391 6.29359 13.2422 6.29359C13.3453 6.29359 13.4475 6.27317 13.5427 6.23351C13.6379 6.19385 13.7243 6.13573 13.7969 6.0625C13.8701 5.98987 13.9282 5.90347 13.9679 5.80826C14.0076 5.71306 14.028 5.61095 14.028 5.50781C14.028 5.40468 14.0076 5.30257 13.9679 5.20736C13.9282 5.11216 13.8701 5.02575 13.7969 4.95313C13.216 4.37291 12.5266 3.91282 11.7678 3.59915C11.0091 3.28547 10.196 3.12436 9.37502 3.125Z" fill="white"/>
<path d="M23.9922 22.8828L15.9766 14.8438C17.3867 13.1424 18.0872 10.9632 17.9326 8.75878C17.778 6.5544 16.7803 4.49429 15.1465 3.00633C13.5127 1.51838 11.3686 0.716953 9.1594 0.768517C6.95021 0.82008 4.84579 1.72067 3.28323 3.28323C1.72067 4.84579 0.82008 6.95021 0.768517 9.1594C0.716953 11.3686 1.51838 13.5127 3.00633 15.1465C4.49429 16.7803 6.5544 17.778 8.75878 17.9326C10.9632 18.0872 13.1424 17.3867 14.8438 15.9766L22.8828 23.9922C22.9555 24.0654 23.0419 24.1236 23.1371 24.1632C23.2323 24.2029 23.3344 24.2233 23.4375 24.2233C23.5407 24.2233 23.6428 24.2029 23.738 24.1632C23.8332 24.1236 23.9196 24.0654 23.9922 23.9922C24.0654 23.9196 24.1236 23.8332 24.1632 23.738C24.2029 23.6428 24.2233 23.5407 24.2233 23.4375C24.2233 23.3344 24.2029 23.2323 24.1632 23.1371C24.1236 23.0419 24.0654 22.9555 23.9922 22.8828ZM2.34376 9.37502C2.34376 7.98437 2.75614 6.62495 3.52874 5.46866C4.30135 4.31238 5.39948 3.41117 6.68427 2.87899C7.96907 2.34681 9.38282 2.20757 10.7467 2.47887C12.1107 2.75017 13.3635 3.41983 14.3469 4.40317C15.3302 5.38651 15.9999 6.63936 16.2712 8.00329C16.5425 9.36722 16.4032 10.781 15.871 12.0658C15.3389 13.3506 14.4377 14.4487 13.2814 15.2213C12.1251 15.9939 10.7657 16.4063 9.37502 16.4063C7.51021 16.4063 5.72179 15.6655 4.40317 14.3469C3.08456 13.0282 2.34376 11.2398 2.34376 9.37502Z" fill="white"/>
</g>
<defs>
<clipPath id="clip0_104_17">
<rect width="25" height="25" fill="white"/>
</clipPath>
</defs>
</svg>
