<!-- icon666.com - MILLIONS vector ICONS FREE --><svg version="1.1" id="Layer_1" xmlns="http://www.w3.org/2000/svg" xmlns:xlink="http://www.w3.org/1999/xlink" x="0px" y="0px" viewBox="0 0 512 512" style="enable-background:new 0 0 512 512;" xml:space="preserve"><g><g><path d="M256,0C114.511,0,0,114.496,0,256c0,141.491,114.496,256,256,256c141.489,0,256-114.496,256-256 C512,114.509,397.504,0,256,0z M256,476.279c-121.463,0-220.279-98.817-220.279-220.279S134.537,35.721,256,35.721 S476.279,134.538,476.279,256S377.463,476.279,256,476.279z"></path></g></g><g><g><path d="M273.86,204.469v-92.543c0-9.864-7.997-17.86-17.86-17.86s-17.86,7.997-17.86,17.86v92.14 c-21.43,7.226-36.912,27.503-36.912,51.339c0,8.742,2.094,17,5.787,24.318l-42.229,42.229c-6.975,6.975-6.975,18.283,0,25.258 c6.974,6.975,18.283,6.976,25.258,0l42.64-42.641c6.914,3.209,14.609,5.013,22.72,5.013c29.873,0,54.177-24.303,54.177-54.177 C309.581,232.01,294.674,212.034,273.86,204.469z M255.405,273.86c-10.177,0-18.456-8.279-18.456-18.456 s8.279-18.456,18.456-18.456s18.456,8.279,18.456,18.456S265.582,273.86,255.405,273.86z"></path></g></g></svg>